<svg id="Group_56" data-name="Group 56" xmlns="http://www.w3.org/2000/svg" xmlns:xlink="http://www.w3.org/1999/xlink" width="213.72" height="20.674" viewBox="0 0 213.72 20.674">
  <defs>
    <clipPath id="clip-path">
      <path id="Path_18" data-name="Path 18" d="M32.836,81.247H36.92l20.6-20.674H53.386L32.836,81.247" transform="translate(-32.836 -60.573)" clip-rule="evenodd"/>
    </clipPath>
    <clipPath id="clip-path-2">
      <path id="Path_20" data-name="Path 20" d="M81.946,60.573H67.255v2.906H81.946a2.989,2.989,0,0,1,0,5.979H67.255V81.247h2.888V72.362h11.8a5.895,5.895,0,0,0,0-11.789" transform="translate(-67.255 -60.573)" clip-rule="evenodd"/>
    </clipPath>
    <clipPath id="clip-path-3">
      <path id="Path_22" data-name="Path 22" d="M170.579,72.362a5.895,5.895,0,0,0,0-11.789H157.725v2.906h12.854a2.989,2.989,0,0,1,0,5.979h-7.9L174.4,81.247h4.084l-8.83-8.884h.928" transform="translate(-157.725 -60.573)" clip-rule="evenodd"/>
    </clipPath>
    <clipPath id="clip-path-4">
      <path id="Path_24" data-name="Path 24" d="M226.086,60.573H211.395v2.906h14.691a2.989,2.989,0,0,1,0,5.979H211.395V81.247h2.888V72.362h11.8a5.895,5.895,0,0,0,0-11.789" transform="translate(-211.395 -60.573)" clip-rule="evenodd"/>
    </clipPath>
    <clipPath id="clip-path-5">
      <path id="Path_26" data-name="Path 26" d="M249.942,60.573v8.884H239.184v2.905h10.758v8.884h2.888V60.573h-2.888" transform="translate(-239.184 -60.573)" clip-rule="evenodd"/>
    </clipPath>
    <clipPath id="clip-path-6">
      <path id="Path_28" data-name="Path 28" d="M100.178,63.356H115.2V78.464H100.178ZM97.411,81.247h20.551V60.573H97.411Z" transform="translate(-97.411 -60.573)" clip-rule="evenodd"/>
    </clipPath>
    <clipPath id="clip-path-7">
      <rect id="Rectangle_18" data-name="Rectangle 18" width="12.342" height="2.906"/>
    </clipPath>
    <clipPath id="clip-path-8">
      <path id="Path_30" data-name="Path 30" d="M197.771,60.573l-9.677,9.735V81.247h2.888V71.529l10.873-10.955h-4.084" transform="translate(-188.094 -60.573)" clip-rule="evenodd"/>
    </clipPath>
    <clipPath id="clip-path-9">
      <path id="Path_32" data-name="Path 32" d="M143.1,63.356h2.256v4.565h2.766V60.573H127.568v2.783H143.1" transform="translate(-127.568 -60.573)" clip-rule="evenodd"/>
    </clipPath>
    <clipPath id="clip-path-10">
      <path id="Path_34" data-name="Path 34" d="M145.353,78.739H130.335V69.609h-2.766V81.522h20.551V74.174h-2.766v4.565" transform="translate(-127.568 -69.609)" clip-rule="evenodd"/>
    </clipPath>
  </defs>
  <g id="Group_28" data-name="Group 28" transform="translate(0 0)">
    <g id="Group_27" data-name="Group 27">
      <path id="Path_17" data-name="Path 17" d="M32.836,81.247H36.92l20.6-20.674H53.386L32.836,81.247" transform="translate(-32.836 -60.573)" fill-rule="evenodd"/>
      <g id="Group_26" data-name="Group 26" clip-path="url(#clip-path)">
        <rect id="Rectangle_10" data-name="Rectangle 10" width="56.001" height="51.991" transform="translate(-15.659 -15.659)"/>
      </g>
    </g>
  </g>
  <g id="Group_31" data-name="Group 31" transform="translate(33.373)">
    <g id="Group_30" data-name="Group 30">
      <path id="Path_19" data-name="Path 19" d="M81.946,60.573H67.255v2.906H81.946a2.989,2.989,0,0,1,0,5.979H67.255V81.247h2.888V72.362h11.8a5.895,5.895,0,0,0,0-11.789" transform="translate(-67.255 -60.573)" fill-rule="evenodd"/>
      <g id="Group_29" data-name="Group 29" clip-path="url(#clip-path-2)">
        <rect id="Rectangle_11" data-name="Rectangle 11" width="51.868" height="51.991" transform="translate(-15.659 -15.658)"/>
      </g>
    </g>
  </g>
  <g id="Group_34" data-name="Group 34" transform="translate(121.092)">
    <g id="Group_33" data-name="Group 33">
      <path id="Path_21" data-name="Path 21" d="M170.579,72.362a5.895,5.895,0,0,0,0-11.789H157.725v2.906h12.854a2.989,2.989,0,0,1,0,5.979h-7.9L174.4,81.247h4.084l-8.83-8.884h.928" transform="translate(-157.725 -60.573)" fill-rule="evenodd"/>
      <g id="Group_32" data-name="Group 32" clip-path="url(#clip-path-3)">
        <rect id="Rectangle_12" data-name="Rectangle 12" width="52.073" height="51.991" transform="translate(-15.658 -15.658)"/>
      </g>
    </g>
  </g>
  <g id="Group_37" data-name="Group 37" transform="translate(173.13)">
    <g id="Group_36" data-name="Group 36">
      <path id="Path_23" data-name="Path 23" d="M226.086,60.573H211.395v2.906h14.691a2.989,2.989,0,0,1,0,5.979H211.395V81.247h2.888V72.362h11.8a5.895,5.895,0,0,0,0-11.789" transform="translate(-211.395 -60.573)" fill-rule="evenodd"/>
      <g id="Group_35" data-name="Group 35" clip-path="url(#clip-path-4)">
        <rect id="Rectangle_13" data-name="Rectangle 13" width="51.868" height="51.991" transform="translate(-15.658 -15.658)"/>
      </g>
    </g>
  </g>
  <g id="Group_40" data-name="Group 40" transform="translate(200.073 0)">
    <g id="Group_39" data-name="Group 39">
      <path id="Path_25" data-name="Path 25" d="M249.942,60.573v8.884H239.184v2.905h10.758v8.884h2.888V60.573h-2.888" transform="translate(-239.184 -60.573)" fill-rule="evenodd"/>
      <g id="Group_38" data-name="Group 38" clip-path="url(#clip-path-5)">
        <rect id="Rectangle_14" data-name="Rectangle 14" width="44.964" height="51.991" transform="translate(-15.659 -15.659)"/>
      </g>
    </g>
  </g>
  <g id="Group_43" data-name="Group 43" transform="translate(62.612)">
    <g id="Group_42" data-name="Group 42">
      <path id="Path_27" data-name="Path 27" d="M100.178,63.356H115.2V78.464H100.178ZM97.411,81.247h20.551V60.573H97.411Z" transform="translate(-97.411 -60.573)" fill-rule="evenodd"/>
      <g id="Group_41" data-name="Group 41" clip-path="url(#clip-path-6)">
        <rect id="Rectangle_15" data-name="Rectangle 15" width="51.868" height="51.991" transform="translate(-15.658 -15.658)"/>
      </g>
    </g>
  </g>
  <g id="Group_46" data-name="Group 46" transform="translate(12.342 8.884)">
    <g id="Group_45" data-name="Group 45">
      <rect id="Rectangle_16" data-name="Rectangle 16" width="12.342" height="2.906"/>
      <g id="Group_44" data-name="Group 44" clip-path="url(#clip-path-7)">
        <rect id="Rectangle_17" data-name="Rectangle 17" width="43.659" height="34.223" transform="translate(-15.659 -15.659)"/>
      </g>
    </g>
  </g>
  <g id="Group_49" data-name="Group 49" transform="translate(150.537 0)">
    <g id="Group_48" data-name="Group 48">
      <path id="Path_29" data-name="Path 29" d="M197.771,60.573l-9.677,9.735V81.247h2.888V71.529l10.873-10.955h-4.084" transform="translate(-188.094 -60.573)" fill-rule="evenodd"/>
      <g id="Group_47" data-name="Group 47" clip-path="url(#clip-path-8)">
        <rect id="Rectangle_19" data-name="Rectangle 19" width="45.079" height="51.991" transform="translate(-15.659 -15.659)"/>
      </g>
    </g>
  </g>
  <g id="Group_52" data-name="Group 52" transform="translate(91.852 0)">
    <g id="Group_51" data-name="Group 51">
      <path id="Path_31" data-name="Path 31" d="M143.1,63.356h2.256v4.565h2.766V60.573H127.568v2.783H143.1" transform="translate(-127.568 -60.573)" fill-rule="evenodd"/>
      <g id="Group_50" data-name="Group 50" clip-path="url(#clip-path-9)">
        <rect id="Rectangle_20" data-name="Rectangle 20" width="51.868" height="38.665" transform="translate(-15.659 -15.659)"/>
      </g>
    </g>
  </g>
  <g id="Group_55" data-name="Group 55" transform="translate(91.852 8.761)">
    <g id="Group_54" data-name="Group 54">
      <path id="Path_33" data-name="Path 33" d="M145.353,78.739H130.335V69.609h-2.766V81.522h20.551V74.174h-2.766v4.565" transform="translate(-127.568 -69.609)" fill-rule="evenodd"/>
      <g id="Group_53" data-name="Group 53" clip-path="url(#clip-path-10)">
        <rect id="Rectangle_21" data-name="Rectangle 21" width="51.868" height="43.229" transform="translate(-15.659 -15.659)"/>
      </g>
    </g>
  </g>
</svg>
