<svg fill="currentColor" xmlns="http://www.w3.org/2000/svg" width="18.802" height="18.802" viewBox="0 0 18.802 18.802"><path d="M0,2.25v18.8H18.8V2.25ZM15.621,6.7l-1.007.965a.3.3,0,0,0-.113.281v7.105a.289.289,0,0,0,.113.281l.986.965v.214H10.647v-.206l1.02-.99c.1-.1.1-.13.1-.281V9.292l-2.837,7.2H8.549l-3.3-7.2v4.826a.664.664,0,0,0,.185.554L6.757,16.28v.214H2.988V16.28l1.326-1.607a.642.642,0,0,0,.172-.554V8.537a.479.479,0,0,0-.159-.411L3.148,6.7V6.489H6.811L9.64,12.7l2.489-6.207h3.492Z" transform="translate(0 -2.25)"/></svg>