<svg fill="currentColor" xmlns="http://www.w3.org/2000/svg" width="18" height="12.656" viewBox="0 0 18 12.656"><path d="M18.674,6.48a2.262,2.262,0,0,0-1.591-1.6A53.449,53.449,0,0,0,10.05,4.5a53.449,53.449,0,0,0-7.032.379,2.262,2.262,0,0,0-1.591,1.6,23.726,23.726,0,0,0-.376,4.361A23.726,23.726,0,0,0,1.426,15.2a2.228,2.228,0,0,0,1.591,1.576,53.45,53.45,0,0,0,7.032.379,53.449,53.449,0,0,0,7.032-.379A2.228,2.228,0,0,0,18.674,15.2a23.726,23.726,0,0,0,.376-4.361,23.726,23.726,0,0,0-.376-4.361ZM8.209,13.517V8.165l4.7,2.676-4.7,2.676Z" transform="translate(-1.05 -4.5)"/></svg>