<svg xmlns="http://www.w3.org/2000/svg" width="19.195" height="9.877" viewBox="0 0 19.195 9.877"><path d="M10.613-6.119Q8.48-2.628,5.764-2.628A4.542,4.542,0,0,1,2.355-3.98,4.858,4.858,0,0,1,1.041-7.516a4.976,4.976,0,0,1,1.371-3.523A4.413,4.413,0,0,1,5.764-12.5q3,0,4.9,3.466Q12.746-12.5,15.488-12.5a4.579,4.579,0,0,1,3.428,1.352,4.845,4.845,0,0,1,1.32,3.536A4.982,4.982,0,0,1,18.865-4.1a4.432,4.432,0,0,1-3.377,1.473Q12.619-2.628,10.613-6.119Zm.825-1.447q1.663,3.3,4.05,3.3a2.84,2.84,0,0,0,2.215-.92,3.488,3.488,0,0,0,.832-2.431,3.356,3.356,0,0,0-.863-2.361,2.837,2.837,0,0,0-2.184-.939Q13.292-10.918,11.438-7.566ZM9.826-7.592Q8.15-10.918,5.764-10.918a2.809,2.809,0,0,0-2.228.952A3.589,3.589,0,0,0,2.7-7.516a3.29,3.29,0,0,0,.857,2.323,2.865,2.865,0,0,0,2.2.927Q8-4.266,9.826-7.592Z" transform="translate(-1.041 12.505)"/></svg>